<svg id="svg" version="1.1" xmlns="http://www.w3.org/2000/svg" xmlns:xlink="http://www.w3.org/1999/xlink" width="400" height="400" viewBox="0, 0, 400,400"><g id="svgg"><path id="path0" d="M12.600 8.787 C 10.451 9.820,9.905 10.319,8.867 12.200 L 7.983 13.800 8.092 200.266 L 8.200 386.731 9.405 388.466 C 10.110 389.480,11.350 390.574,12.390 391.100 L 14.170 392.000 200.000 392.000 L 385.830 392.000 387.610 391.100 C 388.650 390.574,389.890 389.480,390.595 388.466 L 391.800 386.731 391.901 200.352 C 392.001 17.723,391.987 13.943,391.240 12.487 C 390.277 10.608,388.994 9.407,387.107 8.619 C 384.529 7.542,14.845 7.707,12.600 8.787 M365.818 18.982 C 366.491 19.655,366.800 20.409,366.800 21.382 L 366.800 22.800 369.300 22.806 C 373.095 22.815,373.600 23.488,373.600 28.529 C 373.600 33.815,373.669 33.771,365.212 33.927 C 358.420 34.052,358.353 34.062,358.476 34.927 C 358.613 35.891,358.766 35.936,365.302 36.944 C 373.585 38.221,376.047 41.388,375.490 50.051 C 375.097 56.167,373.128 59.296,368.924 60.483 C 367.082 61.003,366.990 61.097,366.775 62.699 C 366.375 65.671,365.754 66.000,360.538 66.000 C 355.209 66.000,354.400 65.578,354.400 62.800 L 354.400 61.200 350.449 61.200 C 345.508 61.200,345.447 61.141,345.264 56.228 C 345.053 50.525,344.858 50.648,354.464 50.400 C 361.905 50.208,362.205 50.168,362.318 49.373 C 362.443 48.499,359.844 47.600,357.194 47.600 C 349.226 47.600,345.200 43.523,345.200 35.453 C 345.200 28.341,347.401 24.918,353.000 23.323 C 354.042 23.026,354.231 22.750,354.435 21.227 C 354.808 18.446,355.669 18.000,360.662 18.000 C 364.561 18.000,364.901 18.065,365.818 18.982 M198.800 107.170 C 200.230 107.415,202.660 107.821,204.200 108.072 C 222.751 111.098,231.613 122.204,231.591 142.400 C 231.566 166.315,218.540 181.714,193.877 186.987 C 190.036 187.808,182.396 188.394,175.500 188.397 L 167.600 188.400 167.600 213.920 C 167.600 233.236,167.483 239.557,167.120 239.920 C 166.433 240.607,140.367 240.607,139.680 239.920 C 138.806 239.046,139.004 107.854,139.880 106.977 C 140.701 106.156,193.894 106.330,198.800 107.170 M280.026 106.814 C 281.121 107.400,281.261 239.738,280.167 240.157 C 278.883 240.650,252.988 240.428,252.480 239.920 C 251.651 239.091,251.798 107.859,252.629 107.029 C 253.391 106.266,278.633 106.068,280.026 106.814 M167.600 147.400 L 167.600 169.319 173.100 169.092 C 192.158 168.308,202.078 160.150,202.152 145.200 C 202.221 131.345,195.594 126.454,175.823 125.767 L 167.600 125.482 167.600 147.400 M150.070 273.664 C 160.384 278.499,161.483 292.715,152.013 298.792 C 149.173 300.614,146.317 301.169,139.700 301.186 L 134.000 301.200 134.000 309.551 C 134.000 319.411,134.257 318.882,129.539 318.717 L 126.200 318.600 126.096 296.000 C 126.039 283.570,126.082 273.164,126.193 272.876 C 126.635 271.721,147.386 272.406,150.070 273.664 M277.000 295.600 L 277.000 318.600 273.200 318.600 L 269.400 318.600 269.296 296.000 C 269.239 283.570,269.281 273.168,269.389 272.885 C 269.535 272.504,270.553 272.400,273.293 272.485 L 277.000 272.600 277.000 295.600 M232.713 280.500 L 232.825 285.200 234.439 285.200 C 237.173 285.200,237.600 285.655,237.600 288.571 C 237.600 291.443,237.443 291.600,234.567 291.600 L 232.800 291.600 232.800 300.574 C 232.800 310.953,232.934 311.597,235.090 311.606 C 237.483 311.616,237.651 311.879,237.518 315.435 L 237.400 318.600 234.487 318.718 C 226.825 319.028,225.206 315.990,225.202 301.300 L 225.200 291.600 224.080 291.600 C 222.439 291.600,222.000 290.911,222.000 288.334 C 222.000 285.886,222.520 285.200,224.374 285.200 C 225.160 285.200,225.200 284.981,225.200 280.667 C 225.200 275.236,224.954 275.544,229.181 275.686 L 232.600 275.800 232.713 280.500 M292.720 276.080 C 293.033 276.393,293.200 278.042,293.200 280.829 L 293.200 285.098 295.243 285.294 C 297.625 285.523,297.986 285.940,297.994 288.471 C 298.002 290.866,297.293 291.600,294.971 291.600 L 293.200 291.600 293.200 301.357 C 293.200 312.036,293.098 311.600,295.604 311.600 C 297.415 311.600,298.000 312.516,298.000 315.349 C 298.000 318.482,297.673 318.800,294.446 318.800 C 286.914 318.800,285.238 315.477,285.214 300.500 L 285.200 291.600 284.229 291.600 C 282.759 291.600,282.000 290.579,282.000 288.604 C 282.000 286.162,282.287 285.658,283.839 285.366 L 285.200 285.111 285.200 281.382 C 285.200 275.758,285.307 275.600,289.110 275.600 C 291.011 275.600,292.428 275.788,292.720 276.080 M134.000 286.800 L 134.000 293.600 138.300 293.597 C 146.988 293.589,149.254 292.586,150.342 288.263 C 151.831 282.351,148.697 280.006,139.300 280.002 L 134.000 280.000 134.000 286.800 M179.733 286.009 C 185.231 288.066,188.401 293.915,188.400 302.000 C 188.398 313.132,183.626 318.908,174.400 318.945 C 163.896 318.988,158.399 309.865,160.937 296.600 C 162.646 287.665,171.230 282.828,179.733 286.009 M210.772 285.646 C 214.043 286.667,218.404 289.127,218.398 289.947 C 218.393 290.634,214.568 294.800,213.943 294.800 C 213.548 294.800,212.161 294.260,210.862 293.600 C 206.186 291.224,200.400 292.209,200.400 295.381 C 200.400 297.327,201.452 297.794,207.172 298.386 C 216.109 299.311,218.921 301.749,218.954 308.600 C 219.005 319.282,203.470 322.992,192.700 314.869 C 190.344 313.092,190.344 313.087,192.886 310.513 C 195.302 308.067,195.497 308.026,197.728 309.517 C 203.360 313.281,211.600 312.665,211.600 308.481 C 211.600 306.640,210.625 306.160,205.800 305.620 C 197.351 304.676,193.980 302.555,192.904 297.508 C 191.133 289.201,201.057 282.613,210.772 285.646 M172.800 292.879 C 169.325 293.838,168.285 295.986,168.290 302.191 C 168.296 309.021,169.984 311.600,174.449 311.600 C 179.068 311.600,180.507 309.352,180.507 302.131 C 180.507 294.500,177.968 291.451,172.800 292.879 M261.569 297.362 C 261.861 297.715,261.991 299.093,261.918 301.062 L 261.800 304.200 252.250 304.307 C 245.541 304.383,242.536 304.279,242.150 303.958 C 241.444 303.372,241.387 297.973,242.080 297.280 C 242.831 296.529,260.940 296.605,261.569 297.362 M393.829 397.829 C 393.405 398.138,393.136 398.469,393.230 398.563 C 393.324 398.657,393.748 398.481,394.171 398.171 C 394.595 397.862,394.864 397.531,394.770 397.437 C 394.676 397.343,394.252 397.519,393.829 397.829 " stroke="none" fill="#fbfbfb" fill-rule="evenodd"></path><path id="path1" d="M356.100 19.212 C 355.361 19.510,355.200 19.884,355.200 21.307 C 355.200 23.256,354.676 24.000,353.304 24.000 C 351.270 24.000,348.167 26.190,346.912 28.512 C 345.635 30.875,345.895 40.629,347.290 42.641 C 348.892 44.953,351.309 46.029,356.600 46.786 C 361.890 47.543,362.103 47.588,362.662 48.051 C 363.330 48.605,363.362 50.078,362.720 50.720 C 362.380 51.060,359.989 51.200,354.510 51.200 L 346.780 51.200 346.390 52.226 C 345.786 53.815,345.904 58.916,346.566 59.824 C 347.040 60.473,347.775 60.633,351.066 60.800 L 355.000 61.000 355.130 62.595 C 355.332 65.074,355.587 65.201,360.349 65.194 C 365.378 65.187,365.566 65.098,365.928 62.570 C 366.175 60.844,366.347 60.576,367.404 60.270 C 373.510 58.501,375.378 54.794,374.599 45.991 C 374.061 39.912,372.190 38.539,362.600 37.183 C 358.730 36.636,357.600 36.145,357.600 35.012 C 357.600 33.367,358.250 33.200,364.654 33.200 C 373.085 33.200,372.800 33.367,372.800 28.434 C 372.800 23.791,372.867 23.876,369.000 23.600 L 366.200 23.400 365.965 21.643 C 365.827 20.604,365.427 19.663,364.989 19.343 C 364.135 18.718,357.569 18.622,356.100 19.212 M360.800 25.800 L 360.800 28.000 364.400 28.000 C 366.533 28.000,368.000 28.163,368.000 28.400 C 368.000 28.651,365.509 28.800,361.328 28.800 L 354.657 28.800 353.328 30.250 C 349.862 34.035,352.103 40.800,356.822 40.800 C 357.664 40.800,358.464 40.980,358.600 41.200 C 358.736 41.420,359.636 41.600,360.600 41.600 C 361.564 41.600,362.464 41.780,362.600 42.000 C 362.736 42.220,363.439 42.400,364.162 42.400 C 365.554 42.400,367.778 43.330,368.289 44.125 C 369.466 45.959,370.094 51.247,369.200 51.800 C 368.980 51.936,368.794 52.352,368.787 52.724 C 368.771 53.529,367.454 55.200,366.836 55.200 C 366.596 55.200,366.400 55.372,366.400 55.582 C 366.400 55.792,365.185 56.017,363.700 56.082 L 361.000 56.200 360.880 58.500 C 360.814 59.765,360.598 60.800,360.400 60.800 C 360.202 60.800,359.986 59.765,359.920 58.500 L 359.800 56.200 355.300 56.087 C 347.700 55.896,350.052 55.200,358.300 55.200 C 365.525 55.199,365.837 55.166,366.800 54.295 C 370.815 50.666,368.943 43.200,364.019 43.200 C 363.436 43.200,362.789 43.038,362.580 42.841 C 362.371 42.644,361.480 42.380,360.600 42.256 C 355.698 41.565,355.752 41.579,352.969 40.316 C 351.477 39.639,350.341 32.578,351.600 31.800 C 351.820 31.664,352.000 31.295,352.000 30.981 C 352.000 30.230,353.238 28.800,353.889 28.800 C 354.170 28.800,354.400 28.620,354.400 28.400 C 354.400 28.171,355.600 28.000,357.200 28.000 L 360.000 28.000 360.000 25.800 C 360.000 24.590,360.180 23.600,360.400 23.600 C 360.620 23.600,360.800 24.590,360.800 25.800 M126.584 273.300 C 126.478 273.575,126.439 283.790,126.496 296.000 L 126.600 318.200 129.800 318.200 L 133.000 318.200 133.200 309.400 L 133.400 300.600 140.600 300.359 C 147.129 300.141,148.005 300.025,150.000 299.121 C 160.005 294.584,160.291 279.268,150.458 274.552 C 147.172 272.976,127.110 271.924,126.584 273.300 M270.497 273.123 C 270.100 273.382,270.015 278.195,270.097 295.826 L 270.200 318.200 273.303 318.317 L 276.407 318.434 276.303 295.717 L 276.200 273.000 273.600 272.897 C 272.170 272.840,270.773 272.942,270.497 273.123 M226.000 280.920 C 226.000 285.840,225.785 286.400,223.899 286.400 C 221.921 286.400,222.390 290.513,224.400 290.800 L 225.800 291.000 226.004 302.000 C 226.258 315.624,226.707 316.748,232.400 317.999 C 236.247 318.844,236.580 318.651,236.718 315.495 C 236.846 312.571,236.899 312.644,234.344 312.221 C 232.102 311.850,231.969 311.153,232.092 300.399 L 232.200 291.000 234.400 290.800 L 236.600 290.600 236.721 288.500 L 236.842 286.400 235.195 286.400 C 232.128 286.400,232.000 286.182,232.000 280.986 L 232.000 276.400 229.000 276.400 L 226.000 276.400 226.000 280.920 M286.400 280.986 C 286.400 285.923,286.189 286.400,284.005 286.400 C 282.601 286.400,282.978 290.542,284.400 290.738 C 286.403 291.015,286.400 291.000,286.400 302.295 C 286.400 315.618,286.849 316.710,292.857 318.017 C 296.524 318.815,297.201 318.452,297.194 315.692 C 297.186 312.877,297.003 312.587,295.035 312.276 C 292.555 311.885,292.600 312.093,292.600 301.081 L 292.600 291.000 294.392 290.872 C 297.952 290.619,298.675 286.719,295.208 286.472 C 292.491 286.279,292.400 286.101,292.400 280.951 L 292.400 276.400 289.400 276.400 L 286.400 276.400 286.400 280.986 M146.707 279.819 C 149.780 281.103,151.200 283.236,151.200 286.568 C 151.200 292.362,147.671 294.513,138.497 294.312 L 133.400 294.200 133.290 287.214 C 133.230 283.372,133.269 279.997,133.378 279.714 C 133.685 278.913,144.747 279.000,146.707 279.819 M171.400 286.160 C 164.074 287.964,161.446 292.154,161.466 301.996 C 161.488 313.357,165.464 318.400,174.400 318.400 C 183.895 318.400,188.185 312.113,187.360 299.410 C 186.715 289.472,180.135 284.010,171.400 286.160 M202.200 286.181 C 196.347 287.364,193.600 290.287,193.600 295.331 C 193.600 301.366,197.812 304.723,205.520 304.832 C 210.551 304.903,212.711 306.260,212.155 309.000 C 211.193 313.734,202.092 314.192,196.838 309.771 L 195.638 308.761 193.519 310.814 L 191.400 312.868 192.786 314.035 C 202.334 322.074,218.354 318.672,218.385 308.600 C 218.403 302.632,214.560 299.200,207.858 299.200 C 200.855 299.200,197.725 296.510,200.768 293.106 C 202.494 291.174,207.712 291.177,211.471 293.111 L 213.943 294.383 215.744 292.292 C 217.427 290.339,217.502 290.155,216.896 289.485 C 215.775 288.246,211.517 286.493,208.523 286.038 C 205.238 285.538,205.397 285.534,202.200 286.181 M177.599 292.600 C 184.000 295.909,182.649 311.194,175.866 312.211 C 169.939 313.100,166.635 308.561,167.313 300.463 C 167.883 293.664,172.634 290.032,177.599 292.600 M242.567 298.142 C 242.452 298.440,242.413 299.835,242.479 301.242 L 242.600 303.800 251.000 303.913 C 261.926 304.060,261.200 304.297,261.200 300.592 L 261.200 297.600 251.987 297.600 C 244.605 297.600,242.734 297.708,242.567 298.142 " stroke="none" fill="#ec9e0b" fill-rule="evenodd"></path><path id="path2" d="M140.099 173.500 L 140.200 239.800 153.400 239.800 L 166.600 239.800 166.800 214.000 L 167.000 188.200 171.000 188.117 C 205.336 187.405,221.726 179.010,228.627 158.600 C 234.886 140.087,229.603 119.438,216.939 112.912 C 207.031 107.808,201.850 107.219,166.699 107.208 L 139.998 107.200 140.099 173.500 M252.899 173.500 L 253.000 239.800 266.500 239.905 L 280.000 240.011 280.000 173.605 L 280.000 107.200 266.399 107.200 L 252.798 107.200 252.899 173.500 M187.000 126.008 C 190.640 127.027,191.509 127.343,193.800 128.477 C 196.046 129.589,200.000 132.935,200.000 133.723 C 200.000 133.918,200.322 134.554,200.715 135.138 C 203.349 139.052,203.755 147.705,201.583 153.647 C 199.421 159.561,194.642 164.280,188.167 166.895 C 183.086 168.947,178.733 169.673,172.400 169.526 L 167.000 169.400 166.896 147.800 C 166.839 135.920,166.888 125.948,167.006 125.641 C 167.269 124.954,184.359 125.268,187.000 126.008 " stroke="none" fill="#a49c9b" fill-rule="evenodd"></path><path id="path3" d="M9.300 0.282 C 8.805 0.378,8.400 0.623,8.400 0.828 C 8.400 1.033,8.164 1.200,7.875 1.200 C 7.587 1.200,7.002 1.515,6.575 1.900 C 6.149 2.285,5.340 2.836,4.779 3.125 C 4.217 3.415,3.319 4.360,2.784 5.225 C 2.249 6.091,1.674 6.800,1.506 6.800 C 1.338 6.800,1.200 7.145,1.200 7.567 C 1.200 7.988,0.975 8.408,0.700 8.500 C 0.035 8.722,-0.044 391.064,0.621 391.515 C 0.852 391.672,1.363 392.490,1.755 393.333 C 2.433 394.788,5.433 398.000,6.115 398.000 C 6.290 398.000,6.809 398.350,7.268 398.778 C 8.642 400.058,5.463 400.039,201.600 399.918 C 399.306 399.795,391.856 399.855,393.200 398.381 C 393.310 398.260,394.030 397.722,394.800 397.184 C 396.487 396.007,397.970 394.385,397.987 393.700 C 397.994 393.425,398.180 393.200,398.400 393.200 C 398.620 393.200,398.800 392.876,398.800 392.480 C 398.800 392.084,399.025 391.535,399.300 391.260 C 399.964 390.596,400.043 8.936,399.379 8.485 C 399.148 8.328,398.665 7.570,398.306 6.800 C 397.533 5.142,395.336 2.800,394.553 2.800 C 394.249 2.800,394.000 2.641,394.000 2.447 C 394.000 2.253,393.037 1.623,391.860 1.047 L 389.720 0.000 199.960 0.054 C 95.592 0.084,9.795 0.187,9.300 0.282 M387.107 8.619 C 388.994 9.407,390.277 10.608,391.240 12.487 C 391.987 13.943,392.001 17.723,391.901 200.352 L 391.800 386.731 390.595 388.466 C 389.890 389.480,388.650 390.574,387.610 391.100 L 385.830 392.000 200.000 392.000 L 14.170 392.000 12.390 391.100 C 11.350 390.574,10.110 389.480,9.405 388.466 L 8.200 386.731 8.092 200.266 L 7.983 13.800 8.867 12.200 C 9.905 10.319,10.451 9.820,12.600 8.787 C 14.845 7.707,384.529 7.542,387.107 8.619 M358.515 18.296 C 359.788 18.376,361.768 18.375,362.915 18.294 C 364.062 18.214,363.020 18.149,360.600 18.150 C 358.180 18.151,357.242 18.216,358.515 18.296 M366.552 21.400 L 366.600 23.000 369.400 23.032 L 372.200 23.064 369.523 22.914 L 366.846 22.765 366.675 21.282 L 366.505 19.800 366.552 21.400 M373.344 28.400 C 373.344 30.490,373.412 31.345,373.494 30.300 C 373.576 29.255,373.576 27.545,373.494 26.500 C 373.412 25.455,373.344 26.310,373.344 28.400 M345.346 35.400 C 345.347 37.600,345.414 38.449,345.495 37.287 C 345.576 36.124,345.576 34.324,345.493 33.287 C 345.411 32.249,345.345 33.200,345.346 35.400 M361.919 33.898 C 363.744 33.972,366.624 33.972,368.319 33.897 C 370.014 33.822,368.520 33.761,365.000 33.762 C 361.480 33.762,360.094 33.824,361.919 33.898 M362.100 36.676 C 362.485 36.776,363.115 36.776,363.500 36.676 C 363.885 36.575,363.570 36.493,362.800 36.493 C 362.030 36.493,361.715 36.575,362.100 36.676 M375.344 48.800 C 375.344 50.890,375.412 51.745,375.494 50.700 C 375.576 49.655,375.576 47.945,375.494 46.900 C 375.412 45.855,375.344 46.710,375.344 48.800 M355.905 47.483 C 356.402 47.579,357.122 47.575,357.505 47.475 C 357.887 47.375,357.480 47.296,356.600 47.301 C 355.720 47.305,355.407 47.387,355.905 47.483 M350.480 50.698 C 352.394 50.771,355.634 50.771,357.680 50.698 C 359.726 50.626,358.160 50.566,354.200 50.565 C 350.240 50.565,348.566 50.624,350.480 50.698 M345.342 55.800 C 345.341 57.780,345.408 58.640,345.492 57.712 C 345.576 56.784,345.577 55.164,345.495 54.112 C 345.412 53.060,345.343 53.820,345.342 55.800 M366.558 61.366 C 366.438 61.678,366.405 62.443,366.484 63.066 C 366.602 63.991,366.664 63.887,366.825 62.500 C 367.027 60.751,366.938 60.375,366.558 61.366 M358.316 65.897 C 359.699 65.975,361.859 65.974,363.116 65.895 C 364.372 65.816,363.240 65.752,360.600 65.753 C 357.960 65.753,356.932 65.818,358.316 65.897 M139.880 106.977 C 139.004 107.854,138.806 239.046,139.680 239.920 C 140.367 240.607,166.433 240.607,167.120 239.920 C 167.483 239.557,167.600 233.236,167.600 213.920 L 167.600 188.400 175.500 188.397 C 215.022 188.381,236.447 167.306,231.012 133.795 C 228.606 118.963,219.928 110.638,204.200 108.072 C 202.660 107.821,200.230 107.415,198.800 107.170 C 193.894 106.330,140.701 106.156,139.880 106.977 M252.629 107.029 C 251.798 107.859,251.651 239.091,252.480 239.920 C 252.988 240.428,278.883 240.650,280.167 240.157 C 281.261 239.738,281.121 107.400,280.026 106.814 C 278.633 106.068,253.391 106.266,252.629 107.029 M198.000 107.779 C 219.772 110.440,228.093 117.539,230.608 135.600 C 234.329 162.313,219.918 181.402,192.000 186.743 C 189.651 187.192,177.610 187.980,171.000 188.117 L 167.000 188.200 166.800 214.000 L 166.600 239.800 153.400 239.800 L 140.200 239.800 140.099 173.500 L 139.998 107.200 166.699 107.208 C 187.144 107.215,194.478 107.348,198.000 107.779 M280.000 173.605 L 280.000 240.011 266.500 239.905 L 253.000 239.800 252.899 173.500 L 252.798 107.200 266.399 107.200 L 280.000 107.200 280.000 173.605 M167.006 125.641 C 166.888 125.948,166.839 135.920,166.896 147.800 L 167.000 169.400 172.400 169.526 C 178.733 169.673,183.086 168.947,188.167 166.895 C 194.642 164.280,199.421 159.561,201.583 153.647 C 203.755 147.705,203.349 139.052,200.715 135.138 C 200.322 134.554,200.000 133.918,200.000 133.723 C 200.000 132.935,196.046 129.589,193.800 128.477 C 191.509 127.343,190.640 127.027,187.000 126.008 C 184.359 125.268,167.269 124.954,167.006 125.641 M186.834 126.634 C 197.589 128.877,202.206 134.472,202.152 145.200 C 202.078 160.150,192.158 168.308,173.100 169.092 L 167.600 169.319 167.600 147.400 L 167.600 125.482 175.823 125.767 C 180.345 125.924,185.300 126.314,186.834 126.634 M143.700 272.687 C 144.305 272.778,145.295 272.778,145.900 272.687 C 146.505 272.595,146.010 272.520,144.800 272.520 C 143.590 272.520,143.095 272.595,143.700 272.687 M269.384 272.900 C 268.730 274.609,269.426 318.591,270.108 318.654 C 270.603 318.699,270.633 318.662,270.208 318.530 C 269.204 318.219,269.295 272.938,270.300 272.676 C 270.956 272.504,270.955 272.490,270.287 272.446 C 269.896 272.421,269.489 272.625,269.384 272.900 M276.100 272.652 C 276.929 272.897,277.214 318.128,276.390 318.537 C 276.165 318.649,276.210 318.694,276.490 318.637 C 277.495 318.433,277.206 272.632,276.200 272.528 C 275.578 272.464,275.556 272.492,276.100 272.652 M225.467 275.867 C 225.320 276.013,225.200 278.161,225.200 280.640 C 225.200 285.140,225.198 285.147,224.195 285.322 C 223.275 285.483,223.283 285.493,224.295 285.449 L 225.400 285.400 225.513 280.672 L 225.626 275.944 229.176 276.072 C 231.129 276.142,232.642 276.065,232.540 275.900 C 232.309 275.529,225.835 275.499,225.467 275.867 M287.500 275.893 C 288.435 275.977,289.965 275.977,290.900 275.893 C 291.835 275.809,291.070 275.740,289.200 275.740 C 287.330 275.740,286.565 275.809,287.500 275.893 M292.980 281.000 L 293.000 285.400 294.703 285.439 L 296.406 285.478 294.816 285.317 L 293.226 285.155 293.093 280.878 L 292.961 276.600 292.980 281.000 M285.283 281.072 C 285.204 284.946,285.156 285.153,284.300 285.318 L 283.400 285.491 284.313 285.546 C 285.539 285.619,285.654 285.159,285.499 280.770 L 285.366 277.000 285.283 281.072 M133.777 280.116 C 133.668 280.400,133.634 283.505,133.700 287.016 L 133.822 293.400 133.911 286.712 L 134.000 280.024 139.100 279.899 L 144.200 279.774 139.087 279.687 C 135.217 279.621,133.927 279.725,133.777 280.116 M171.505 285.483 C 172.002 285.579,172.722 285.575,173.105 285.475 C 173.487 285.375,173.080 285.296,172.200 285.301 C 171.320 285.305,171.007 285.387,171.505 285.483 M175.905 285.483 C 176.402 285.579,177.122 285.575,177.505 285.475 C 177.887 285.375,177.480 285.296,176.600 285.301 C 175.720 285.305,175.407 285.387,175.905 285.483 M202.500 285.476 C 202.885 285.576,203.515 285.576,203.900 285.476 C 204.285 285.375,203.970 285.293,203.200 285.293 C 202.430 285.293,202.115 285.375,202.500 285.476 M207.305 285.487 C 207.914 285.579,208.814 285.577,209.305 285.482 C 209.797 285.387,209.300 285.311,208.200 285.314 C 207.100 285.317,206.697 285.395,207.305 285.487 M233.705 285.487 C 234.314 285.579,235.214 285.577,235.705 285.482 C 236.197 285.387,235.700 285.311,234.600 285.314 C 233.500 285.317,233.097 285.395,233.705 285.487 M222.128 288.400 C 222.128 289.830,222.201 290.415,222.289 289.700 C 222.378 288.985,222.378 287.815,222.289 287.100 C 222.201 286.385,222.128 286.970,222.128 288.400 M282.120 288.400 C 282.120 289.610,282.195 290.105,282.287 289.500 C 282.378 288.895,282.378 287.905,282.287 287.300 C 282.195 286.695,282.120 287.190,282.120 288.400 M297.720 288.400 C 297.720 289.610,297.795 290.105,297.887 289.500 C 297.978 288.895,297.978 287.905,297.887 287.300 C 297.795 286.695,297.720 287.190,297.720 288.400 M223.993 291.425 L 225.186 291.650 225.304 301.725 L 225.421 311.800 225.411 301.600 L 225.400 291.400 224.100 291.300 C 222.831 291.202,222.828 291.205,223.993 291.425 M234.105 291.487 C 234.714 291.579,235.614 291.577,236.105 291.482 C 236.597 291.387,236.100 291.311,235.000 291.314 C 233.900 291.317,233.497 291.395,234.105 291.487 M284.293 291.487 C 285.181 291.651,285.186 291.693,285.304 300.826 L 285.423 310.000 285.411 300.700 L 285.400 291.400 284.400 291.361 C 283.545 291.328,283.529 291.347,284.293 291.487 M292.980 291.709 C 292.872 291.988,292.837 296.353,292.900 301.409 L 293.016 310.600 293.108 301.122 L 293.200 291.644 295.100 291.494 L 297.000 291.344 295.087 291.272 C 293.852 291.226,293.106 291.380,292.980 291.709 M204.307 292.290 C 205.026 292.379,206.106 292.377,206.707 292.286 C 207.308 292.195,206.720 292.122,205.400 292.124 C 204.080 292.126,203.588 292.201,204.307 292.290 M242.080 297.280 C 241.777 297.583,241.627 298.872,241.673 300.780 L 241.747 303.800 241.973 300.600 L 242.200 297.400 251.800 297.189 L 261.400 296.978 251.980 296.889 C 245.084 296.824,242.431 296.929,242.080 297.280 M168.114 299.000 C 168.117 300.100,168.195 300.503,168.287 299.895 C 168.379 299.286,168.377 298.386,168.282 297.895 C 168.187 297.403,168.111 297.900,168.114 299.000 M180.514 299.000 C 180.517 300.100,180.595 300.503,180.687 299.895 C 180.779 299.286,180.777 298.386,180.682 297.895 C 180.587 297.403,180.511 297.900,180.514 299.000 M261.679 300.693 L 261.600 303.986 251.900 304.100 L 242.200 304.215 251.913 304.307 C 263.005 304.413,262.105 304.769,261.898 300.363 L 261.759 297.400 261.679 300.693 M188.148 302.000 C 188.148 304.310,188.214 305.255,188.295 304.100 C 188.376 302.945,188.376 301.055,188.295 299.900 C 188.214 298.745,188.148 299.690,188.148 302.000 M203.505 298.283 C 204.002 298.379,204.722 298.375,205.105 298.275 C 205.487 298.175,205.080 298.096,204.200 298.101 C 203.320 298.105,203.007 298.187,203.505 298.283 M160.546 302.200 C 160.547 304.400,160.614 305.249,160.695 304.087 C 160.776 302.924,160.776 301.124,160.693 300.087 C 160.611 299.049,160.545 300.000,160.546 302.200 M133.779 301.311 C 133.671 301.592,133.636 305.507,133.700 310.011 L 133.818 318.200 133.909 309.710 L 134.000 301.221 140.100 301.099 L 146.200 300.978 140.087 300.889 C 135.432 300.821,133.928 300.922,133.779 301.311 M168.109 305.200 C 168.109 306.190,168.187 306.595,168.282 306.100 C 168.378 305.605,168.378 304.795,168.282 304.300 C 168.187 303.805,168.109 304.210,168.109 305.200 M180.514 305.400 C 180.517 306.500,180.595 306.903,180.687 306.295 C 180.779 305.686,180.777 304.786,180.682 304.295 C 180.587 303.803,180.511 304.300,180.514 305.400 M207.700 305.876 C 208.085 305.976,208.715 305.976,209.100 305.876 C 209.485 305.775,209.170 305.693,208.400 305.693 C 207.630 305.693,207.315 305.775,207.700 305.876 M173.905 311.883 C 174.402 311.979,175.122 311.975,175.505 311.875 C 175.887 311.775,175.480 311.696,174.600 311.701 C 173.720 311.705,173.407 311.787,173.905 311.883 M234.705 311.883 C 235.202 311.979,235.922 311.975,236.305 311.875 C 236.687 311.775,236.280 311.696,235.400 311.701 C 234.520 311.705,234.207 311.787,234.705 311.883 M294.900 311.876 C 295.285 311.976,295.915 311.976,296.300 311.876 C 296.685 311.775,296.370 311.693,295.600 311.693 C 294.830 311.693,294.515 311.775,294.900 311.876 M297.731 315.400 C 297.733 316.940,297.805 317.521,297.892 316.691 C 297.979 315.861,297.977 314.601,297.889 313.891 C 297.800 313.181,297.729 313.860,297.731 315.400 M231.700 318.676 C 232.085 318.776,232.715 318.776,233.100 318.676 C 233.485 318.575,233.170 318.493,232.400 318.493 C 231.630 318.493,231.315 318.575,231.700 318.676 " stroke="none" fill="#e4e4e4" fill-rule="evenodd"></path><path id="path4" d="M355.436 18.924 C 354.997 19.245,354.637 20.170,354.509 21.308 C 354.334 22.858,354.125 23.231,353.250 23.552 L 352.200 23.937 353.220 23.968 C 354.667 24.013,355.200 23.298,355.200 21.310 C 355.200 19.120,355.907 18.800,360.750 18.800 C 364.935 18.800,365.637 19.182,365.965 21.643 L 366.200 23.400 369.000 23.600 C 372.867 23.876,372.800 23.791,372.800 28.434 C 372.800 33.367,373.085 33.200,364.654 33.200 C 358.250 33.200,357.600 33.367,357.600 35.012 C 357.600 36.145,358.730 36.636,362.600 37.183 C 372.190 38.539,374.061 39.912,374.599 45.991 C 375.378 54.794,373.510 58.501,367.404 60.270 C 366.347 60.576,366.175 60.844,365.928 62.570 C 365.566 65.098,365.378 65.187,360.349 65.194 C 355.587 65.201,355.332 65.074,355.130 62.595 L 355.000 61.000 351.066 60.800 C 347.775 60.633,347.040 60.473,346.566 59.824 C 345.904 58.916,345.786 53.815,346.390 52.226 L 346.780 51.200 354.541 51.200 C 362.883 51.200,363.409 51.073,363.131 49.132 C 362.964 47.968,361.443 47.201,359.400 47.251 C 357.805 47.290,357.807 47.291,359.929 47.745 C 362.144 48.218,363.007 49.016,362.389 50.018 C 362.102 50.484,360.463 50.640,354.200 50.800 C 345.004 51.035,345.615 50.662,345.606 56.051 C 345.598 60.891,345.660 60.953,350.661 61.139 L 354.400 61.277 354.400 62.550 C 354.400 65.277,355.055 65.600,360.599 65.600 C 366.105 65.600,366.057 65.623,366.390 62.833 C 366.589 61.158,366.694 61.033,368.405 60.433 C 373.958 58.485,375.439 55.609,375.124 47.388 C 374.857 40.414,372.887 38.260,365.800 37.194 C 358.159 36.044,357.194 35.653,358.404 34.195 C 358.804 33.713,360.135 33.600,365.420 33.600 C 373.510 33.600,373.200 33.805,373.200 28.448 C 373.200 23.490,373.037 23.261,369.400 23.113 L 366.600 23.000 366.470 21.400 C 366.250 18.674,365.715 18.400,360.614 18.400 C 357.566 18.400,355.926 18.566,355.436 18.924 M360.000 25.800 L 360.000 28.000 357.200 28.000 C 355.600 28.000,354.400 28.171,354.400 28.400 C 354.400 28.620,354.170 28.800,353.889 28.800 C 353.238 28.800,352.000 30.230,352.000 30.981 C 352.000 31.295,351.820 31.664,351.600 31.800 C 350.341 32.578,351.477 39.639,352.969 40.316 C 355.752 41.579,355.698 41.565,360.600 42.256 C 361.480 42.380,362.371 42.644,362.580 42.841 C 362.789 43.038,363.436 43.200,364.019 43.200 C 368.943 43.200,370.815 50.666,366.800 54.295 C 365.837 55.166,365.525 55.199,358.300 55.200 C 350.052 55.200,347.700 55.896,355.300 56.087 L 359.800 56.200 359.920 58.500 C 359.986 59.765,360.202 60.800,360.400 60.800 C 360.598 60.800,360.814 59.765,360.880 58.500 L 361.000 56.200 363.700 56.082 C 365.185 56.017,366.400 55.792,366.400 55.582 C 366.400 55.372,366.596 55.200,366.836 55.200 C 367.454 55.200,368.771 53.529,368.787 52.724 C 368.794 52.352,368.980 51.936,369.200 51.800 C 370.094 51.247,369.466 45.959,368.289 44.125 C 367.778 43.330,365.554 42.400,364.162 42.400 C 363.439 42.400,362.736 42.220,362.600 42.000 C 362.464 41.780,361.564 41.600,360.600 41.600 C 359.636 41.600,358.736 41.420,358.600 41.200 C 358.464 40.980,357.664 40.800,356.822 40.800 C 352.103 40.800,349.862 34.035,353.328 30.250 L 354.657 28.800 361.328 28.800 C 365.509 28.800,368.000 28.651,368.000 28.400 C 368.000 28.163,366.533 28.000,364.400 28.000 L 360.800 28.000 360.800 25.800 C 360.800 24.590,360.620 23.600,360.400 23.600 C 360.180 23.600,360.000 24.590,360.000 25.800 M349.166 25.300 C 344.321 29.015,344.203 42.316,348.990 45.141 C 350.726 46.165,354.631 47.217,356.458 47.153 C 357.591 47.113,357.489 47.049,355.800 46.742 C 347.572 45.245,346.208 43.639,346.203 35.439 C 346.199 28.339,346.767 27.064,350.975 24.717 C 351.749 24.285,351.954 24.027,351.531 24.017 C 351.163 24.008,350.099 24.585,349.166 25.300 M131.121 272.699 C 133.388 272.770,136.988 272.770,139.121 272.698 C 141.255 272.626,139.400 272.568,135.000 272.568 C 130.600 272.568,128.855 272.627,131.121 272.699 M270.300 272.676 C 269.560 272.869,269.162 318.400,269.900 318.400 C 270.065 318.400,270.152 308.234,270.093 295.809 L 269.987 273.219 270.893 273.014 C 271.392 272.901,272.700 272.749,273.800 272.677 C 275.660 272.553,275.633 272.542,273.400 272.518 C 272.080 272.504,270.685 272.575,270.300 272.676 M126.267 273.067 C 125.749 273.585,125.957 317.797,126.480 318.320 C 126.778 318.618,128.029 318.773,129.780 318.728 L 132.600 318.656 129.600 318.428 L 126.600 318.200 126.600 295.500 C 126.600 283.015,126.585 272.800,126.567 272.800 C 126.548 272.800,126.413 272.920,126.267 273.067 M146.000 273.370 C 157.368 275.165,161.728 287.741,153.929 296.239 C 150.945 299.491,149.050 300.076,140.600 300.359 L 133.400 300.600 133.200 309.500 C 133.090 314.396,133.131 318.401,133.292 318.400 C 133.453 318.400,133.633 314.485,133.692 309.700 L 133.800 301.000 140.800 300.772 C 149.492 300.489,151.577 299.810,154.709 296.242 C 162.437 287.440,156.550 272.648,145.400 272.852 L 143.000 272.896 146.000 273.370 M276.301 287.500 C 276.357 295.585,276.450 305.890,276.510 310.400 C 276.569 314.910,276.658 308.295,276.709 295.700 C 276.759 283.105,276.665 272.800,276.500 272.800 C 276.335 272.800,276.245 279.415,276.301 287.500 M225.513 280.685 L 225.400 285.400 223.900 285.524 L 222.400 285.648 222.400 288.400 L 222.400 291.152 223.900 291.276 L 225.400 291.400 225.600 302.400 C 225.794 313.059,225.829 313.447,226.735 314.904 C 227.842 316.685,230.599 318.417,232.235 318.359 C 233.281 318.322,233.236 318.276,231.800 317.909 C 226.721 316.613,226.252 315.327,226.004 302.000 L 225.800 291.000 224.400 290.800 C 222.390 290.513,221.921 286.400,223.899 286.400 C 225.785 286.400,226.000 285.840,226.000 280.920 L 226.000 276.400 229.000 276.400 L 232.000 276.400 232.000 280.986 C 232.000 286.182,232.128 286.400,235.195 286.400 L 236.842 286.400 236.721 288.500 L 236.600 290.600 234.400 290.800 L 232.200 291.000 232.092 300.399 C 231.969 311.153,232.102 311.850,234.344 312.221 C 236.899 312.644,236.846 312.571,236.718 315.495 L 236.600 318.200 235.000 318.443 C 233.459 318.678,233.449 318.689,234.726 318.743 C 237.078 318.844,237.600 318.276,237.600 315.619 C 237.600 312.356,237.402 312.000,235.586 312.000 C 232.788 312.000,232.773 311.937,232.893 301.064 L 233.000 291.400 235.058 291.281 C 237.274 291.152,237.582 290.787,237.595 288.274 C 237.605 286.198,236.980 285.600,234.799 285.600 L 232.825 285.600 232.713 280.900 L 232.600 276.200 229.113 276.085 L 225.626 275.969 225.513 280.685 M285.513 280.700 L 285.400 285.400 284.000 285.600 L 282.600 285.800 282.600 288.400 L 282.600 291.000 284.000 291.200 L 285.400 291.400 285.600 302.000 C 285.807 312.973,285.924 313.750,287.713 316.017 C 289.164 317.855,293.932 319.234,296.560 318.574 C 297.619 318.308,297.631 318.269,297.516 315.253 L 297.400 312.200 295.643 311.965 C 292.789 311.585,292.771 311.514,292.893 300.814 L 293.000 291.400 295.200 291.200 L 297.400 291.000 297.400 288.400 L 297.400 285.800 295.200 285.600 L 293.000 285.400 292.887 280.700 L 292.775 276.000 289.200 276.000 L 285.625 276.000 285.513 280.700 M292.400 280.951 C 292.400 286.101,292.491 286.279,295.208 286.472 C 298.675 286.719,297.952 290.619,294.392 290.872 L 292.600 291.000 292.600 301.081 C 292.600 312.093,292.555 311.885,295.035 312.276 C 297.003 312.587,297.186 312.877,297.194 315.692 C 297.201 318.452,296.524 318.815,292.857 318.017 C 286.849 316.710,286.400 315.618,286.400 302.295 C 286.400 291.000,286.403 291.015,284.400 290.738 C 282.978 290.542,282.601 286.400,284.005 286.400 C 286.189 286.400,286.400 285.923,286.400 280.986 L 286.400 276.400 289.400 276.400 L 292.400 276.400 292.400 280.951 M133.378 279.714 C 133.269 279.997,133.230 283.372,133.290 287.214 L 133.400 294.200 138.200 294.320 C 140.840 294.385,143.630 294.295,144.400 294.120 C 145.397 293.892,144.072 293.742,139.800 293.600 L 133.800 293.400 133.800 286.600 L 133.800 279.800 139.800 279.820 C 146.390 279.843,147.178 280.053,149.400 282.391 C 151.907 285.028,150.825 290.569,147.400 292.630 C 146.520 293.159,146.059 293.594,146.375 293.596 C 150.869 293.626,152.853 284.793,149.133 281.319 C 146.972 279.302,134.041 277.984,133.378 279.714 M202.600 285.574 C 196.416 286.383,192.386 290.842,192.929 296.273 C 193.511 302.088,196.691 304.333,205.859 305.399 C 210.948 305.990,211.066 306.036,211.859 307.748 L 212.440 309.000 212.188 307.802 C 211.737 305.662,209.731 304.800,205.200 304.800 C 197.925 304.800,193.600 301.270,193.600 295.331 C 193.600 289.996,196.281 287.385,203.200 285.983 C 206.618 285.290,206.321 285.088,202.600 285.574 M169.326 286.130 C 162.391 288.687,158.828 298.868,161.390 308.800 C 164.749 321.814,183.452 322.553,187.301 309.824 C 188.133 307.073,187.955 296.673,187.028 293.844 C 185.657 289.663,181.288 286.056,177.216 285.743 C 175.431 285.606,175.438 285.612,177.658 286.121 C 185.247 287.860,188.547 294.897,187.268 306.616 C 186.455 314.074,181.731 318.400,174.400 318.400 C 165.464 318.400,161.488 313.357,161.466 301.996 C 161.446 292.154,164.074 287.964,171.400 286.160 C 173.228 285.711,173.279 285.668,172.000 285.664 C 171.230 285.662,170.027 285.872,169.326 286.130 M209.200 286.142 C 211.959 286.636,215.851 288.331,216.909 289.499 C 217.498 290.150,217.412 290.356,215.744 292.292 L 213.943 294.383 211.471 293.111 C 207.712 291.177,202.494 291.174,200.768 293.106 C 197.669 296.573,200.928 299.260,208.120 299.168 C 211.410 299.127,210.665 298.892,205.861 298.459 C 201.035 298.023,199.585 297.059,200.244 294.726 C 201.103 291.681,206.459 291.101,211.155 293.545 C 212.482 294.235,213.745 294.800,213.962 294.800 C 214.415 294.800,218.000 290.509,218.000 289.967 C 218.000 288.604,211.148 285.580,208.200 285.643 C 206.835 285.672,206.981 285.745,209.200 286.142 M170.521 293.204 C 164.938 297.309,166.527 310.822,172.753 312.190 C 179.241 313.615,182.972 307.342,181.198 297.990 C 180.175 292.596,174.690 290.138,170.521 293.204 M177.442 293.163 C 181.506 295.009,182.422 306.965,178.752 310.252 C 173.444 315.005,168.026 310.886,168.009 302.084 C 167.993 294.064,171.702 290.557,177.442 293.163 M242.267 297.467 C 241.898 297.836,241.929 304.000,242.300 304.001 C 242.465 304.001,242.600 302.606,242.600 300.901 L 242.600 297.800 251.900 297.693 L 261.200 297.585 261.200 300.559 C 261.200 302.564,261.037 303.599,260.700 303.735 C 260.401 303.856,260.482 303.950,260.900 303.968 C 261.514 303.996,261.600 303.583,261.600 300.600 L 261.600 297.200 252.067 297.200 C 246.823 297.200,242.413 297.320,242.267 297.467 M212.710 299.975 C 219.408 302.257,220.588 311.773,214.678 315.846 C 208.787 319.906,198.775 319.077,192.786 314.035 L 191.400 312.868 193.519 310.814 L 195.638 308.761 196.838 309.771 C 201.537 313.724,212.000 313.692,212.000 309.724 C 212.000 309.429,211.500 309.747,210.889 310.431 C 208.398 313.219,201.002 312.661,197.118 309.392 C 195.588 308.105,195.652 308.090,193.255 310.264 C 190.648 312.629,190.670 313.177,193.452 315.169 C 202.849 321.898,216.827 319.402,218.790 310.645 C 219.956 305.443,215.903 299.092,211.504 299.228 C 210.962 299.245,211.445 299.544,212.710 299.975 M271.891 318.689 C 272.601 318.777,273.861 318.779,274.691 318.692 C 275.521 318.605,274.940 318.533,273.400 318.531 C 271.860 318.529,271.181 318.600,271.891 318.689 " stroke="none" fill="#fbd79f" fill-rule="evenodd"></path></g></svg>